<?xml version="1.0" encoding="UTF-8" standalone="no"?>
<svg
   version="1.1"
   width="535.4292"
   height="299.73553"
   id="svg11"
   xml:space="preserve"
   xmlns="http://www.w3.org/2000/svg"
   xmlns:svg="http://www.w3.org/2000/svg"><defs
     id="defs11" /><g
     id="g2"
     transform="translate(-236.81442,-214.91913)"><g
       id="g3"><text
         xml:space="preserve"
         style="font-size:133.333px;line-height:0.6;font-family:Arial;-inkscape-font-specification:'Arial, Normal';text-align:start;letter-spacing:1px;writing-mode:lr-tb;direction:ltr;text-anchor:start;fill:#308dde;fill-opacity:1"
         x="423.97772"
         y="461.42126"
         id="text16"><tspan
           id="tspan16"
           x="423.97772"
           y="461.42126"
           style="font-style:normal;font-variant:normal;font-weight:bold;font-stretch:normal;font-size:133.333px;line-height:0.6;font-family:Poppins;-inkscape-font-specification:'Poppins, Bold';font-variant-ligatures:normal;font-variant-caps:normal;font-variant-numeric:normal;font-variant-east-asian:normal;letter-spacing:1px;writing-mode:lr-tb;fill:#308dde;fill-opacity:1">ravel</tspan></text><path
         id="path11"
         style="fill:#308dde;fill-opacity:1;stroke-width:1.06081"
         d="m 350.19527,214.91913 a 17.058846,17.058846 0 0 0 -17.0586,17.05859 17.058846,17.058846 0 0 0 0.0781,1.63086 h -0.0234 v 42.93164 l -96.11328,73.36914 -0.26367,19.29492 96.16797,-43.79492 v 12.77734 31.39844 49.08594 c 0,15.18299 3.47687,26.16456 10.42969,32.94531 6.9528,6.63335 16.6472,9.95117 29.08203,9.95117 h 10.40625 7.04101 29.25 v -32.16211 h -36.29101 v 0.0996 H 377.707 c -3.74382,0 -6.41699,-0.81015 -8.02149,-2.43164 -1.60449,-1.62149 -2.40625,-4.27575 -2.40625,-7.96094 V 369.58514 338.1867 324.04998 l 96.4961,42.88282 -0.26368,-19.29493 -96.36718,-72.89062 v -40.8457 a 17.058846,17.058846 0 0 0 0.10937,-1.92383 17.058846,17.058846 0 0 0 -17.05859,-17.05859 z" /><text
         xml:space="preserve"
         style="font-style:normal;font-variant:normal;font-weight:300;font-stretch:normal;font-size:53.3333px;line-height:0.6;font-family:Poppins;-inkscape-font-specification:'Poppins Light';font-variant-ligatures:normal;font-variant-caps:normal;font-variant-numeric:normal;font-variant-east-asian:normal;text-align:start;letter-spacing:6px;writing-mode:lr-tb;direction:ltr;text-anchor:start;fill:#308dde;fill-opacity:1"
         x="327.94202"
         y="514.22803"
         id="text2"><tspan
           id="tspan2"
           x="327.94202"
           y="514.22803"
           style="font-size:53.3333px;letter-spacing:6px">Master</tspan></text></g></g></svg>
